<?xml version="1.0" encoding="UTF-8" standalone="no"?>
<!-- Created with Inkscape (http://www.inkscape.org/) -->

<svg
   xmlns:dc="http://purl.org/dc/elements/1.1/"
   xmlns:cc="http://creativecommons.org/ns#"
   xmlns:rdf="http://www.w3.org/1999/02/22-rdf-syntax-ns#"
   xmlns:svg="http://www.w3.org/2000/svg"
   xmlns="http://www.w3.org/2000/svg"
   xmlns:sodipodi="http://sodipodi.sourceforge.net/DTD/sodipodi-0.dtd"
   xmlns:inkscape="http://www.inkscape.org/namespaces/inkscape"
   width="923.50763"
   height="95.380852"
   id="svg2"
   version="1.1"
   inkscape:version="0.48.3.1 r9886"
   sodipodi:docname="Neues Dokument 1"
   inkscape:export-filename="/home/mweigand/Programme/Cole-Cole-Inversion/static/cc_equation.png"
   inkscape:export-xdpi="48.73"
   inkscape:export-ydpi="48.73">
  <sodipodi:namedview
     id="base"
     pagecolor="#ffffff"
     bordercolor="#666666"
     borderopacity="1.0"
     inkscape:pageopacity="0.0"
     inkscape:pageshadow="2"
     inkscape:zoom="0.35"
     inkscape:cx="273.1266"
     inkscape:cy="-32.439263"
     inkscape:document-units="px"
     inkscape:current-layer="layer1"
     showgrid="false"
     inkscape:window-width="982"
     inkscape:window-height="566"
     inkscape:window-x="373"
     inkscape:window-y="397"
     inkscape:window-maximized="0"
     fit-margin-top="0"
     fit-margin-left="0"
     fit-margin-right="0"
     fit-margin-bottom="0" />
  <defs
     id="defs4" />
  <metadata
     id="metadata7">
    <rdf:RDF>
      <cc:Work
         rdf:about="">
        <dc:format>image/svg+xml</dc:format>
        <dc:type
           rdf:resource="http://purl.org/dc/dcmitype/StillImage" />
        <dc:title></dc:title>
      </cc:Work>
    </rdf:RDF>
  </metadata>
  <g
     inkscape:label="Ebene 1"
     inkscape:groupmode="layer"
     id="layer1"
     transform="translate(-76.873401,-404.54207)">
    <g
       id="g3173"
       transform="translate(-222.85715,100)">
      <g
         word-spacing="normal"
         letter-spacing="normal"
         font-size-adjust="none"
         font-stretch="normal"
         font-weight="normal"
         font-variant="normal"
         font-style="normal"
         stroke-miterlimit="10.433"
         xml:space="preserve"
         transform="matrix(1.0629921,0,0,-1.0629921,-186.02362,789.27165)"
         id="g3175"
         style="font-style:normal;font-variant:normal;font-weight:normal;font-stretch:normal;letter-spacing:normal;word-spacing:normal;text-anchor:start;fill:none;stroke:#000000;stroke-linecap:butt;stroke-linejoin:miter;stroke-miterlimit:10.43299961;stroke-opacity:1;stroke-dasharray:none;stroke-dashoffset:0"><polygon
           id="polygon3177"
           points="472.53,433.34 465.86,426.56 466.75,425.67 472.53,430.75 478.27,425.67 479.16,426.56 "
           style="fill:#000000;stroke-width:0" /><path
           id="path3179"
           d="m 457.16,390.14 -0.01,-0.03 -0.01,-0.03 0,-0.02 -0.01,-0.03 0,-0.02 -0.01,-0.03 -0.01,-0.02 0,-0.02 -0.01,-0.03 0,-0.02 0,-0.02 -0.01,-0.02 0,-0.02 -0.01,-0.02 0,-0.03 -0.01,-0.04 -0.01,-0.03 0,-0.03 -0.01,-0.03 0,-0.02 -0.01,-0.03 0,-0.02 -0.01,-0.02 0,-0.02 0,-0.02 0,-0.02 -0.01,-0.02 0,-0.01 0,-0.02 0,-0.01 0,-0.01 0,-0.02 0,-0.01 0,-0.02 0,-0.02 0,-0.02 c 0,-0.73 0.54,-1.34 1.39,-1.34 1.04,0 1.64,0.9 1.75,1.04 0.23,0.46 1.84,7.13 3.18,12.52 0.99,-2 2.58,-3.35 4.93,-3.35 l -0.05,1.1 c -3.49,0 -4.28,3.98 -4.28,4.44 0,0.2 0.25,1.18 0.39,1.84 1.4,5.58 1.9,7.37 3,9.36 2.14,3.64 4.62,4.73 6.17,4.73 1.84,0 3.44,-1.43 3.44,-4.87 0,-2.75 -1.44,-8.33 -2.78,-10.77 -1.66,-3.14 -4.05,-4.73 -5.94,-4.73 h 0 l 0.05,-1.1 c 5.82,0 12.26,7.04 12.26,14.46 0,5.28 -3.3,8.11 -6.94,8.11 -4.82,0 -10.06,-4.99 -11.54,-11.07 z"
           inkscape:connector-curvature="0"
           style="fill:#000000;stroke-width:0" /><path
           id="path3181"
           d="m 497.8,386.81 0,0.03 0,0.02 -0.01,0.02 0,0.01 0,0.01 -0.01,0.02 0,0.02 -0.01,0.01 -0.01,0.02 -0.01,0.02 -0.01,0.03 -0.01,0.02 -0.02,0.02 -0.02,0.03 -0.02,0.03 -0.02,0.03 -0.03,0.04 -0.03,0.03 -0.01,0.02 -0.02,0.02 -0.02,0.02 -0.02,0.02 -0.02,0.03 -0.02,0.02 -0.02,0.02 -0.02,0.03 -0.02,0.02 -0.03,0.03 -0.02,0.02 -0.03,0.03 -0.02,0.03 -0.03,0.03 -0.03,0.03 -0.03,0.03 -0.03,0.03 -0.03,0.03 -0.03,0.04 -0.04,0.03 -0.03,0.04 -0.04,0.04 -0.04,0.03 -0.04,0.04 c -6.22,6.28 -7.81,15.69 -7.81,23.31 0,8.68 1.89,17.35 8.02,23.57 0.64,0.61 0.64,0.7 0.64,0.86 0,0.34 -0.19,0.48 -0.49,0.48 -0.5,0 -4.98,-3.37 -7.92,-9.7 -2.55,-5.49 -3.14,-11.02 -3.14,-15.21 0,-3.89 0.55,-9.9 3.28,-15.54 2.99,-6.13 7.28,-9.36 7.78,-9.36 0.3,0 0.49,0.14 0.49,0.5 z"
           inkscape:connector-curvature="0"
           style="fill:#000000;stroke-width:0" /><path
           id="path3183"
           d="m 530.77,417.29 0,0.21 -0.01,0.2 -0.01,0.2 -0.02,0.19 -0.02,0.18 -0.03,0.18 -0.03,0.17 -0.04,0.17 -0.04,0.16 -0.04,0.15 -0.05,0.14 -0.05,0.14 -0.06,0.14 -0.05,0.12 -0.07,0.12 -0.06,0.12 -0.07,0.11 -0.07,0.1 -0.08,0.09 -0.08,0.09 -0.08,0.08 -0.08,0.07 -0.09,0.07 -0.08,0.06 -0.09,0.05 -0.1,0.05 -0.09,0.04 -0.1,0.03 -0.09,0.02 -0.1,0.02 -0.1,0.01 -0.11,0.01 c -1.29,0 -2.63,-1.19 -2.63,-2.35 0,-0.48 0.23,-1.03 0.73,-1.48 0.86,-0.75 1.75,-2.09 1.75,-4.19 0,-2 -0.95,-4.83 -2.48,-7.12 -1.5,-2.14 -3.35,-3.83 -5.69,-3.83 -2.85,0 -4.39,1.78 -4.83,4.47 0.55,1.29 1.69,4.48 1.69,5.89 0,0.59 -0.25,1.09 -0.89,1.09 -0.41,0 -0.96,-0.11 -1.35,-0.84 -0.55,-1 -1.15,-4.24 -1.15,-6.03 -1.65,-2.35 -3.63,-4.58 -6.77,-4.58 -3.3,0 -4.34,2.94 -4.34,5.72 0,6.23 5.09,11.47 5.09,12.11 0,0.54 -0.41,0.95 -0.95,0.95 -0.66,0 -1,-0.66 -1.3,-1.11 -2.55,-3.69 -4.44,-9.61 -4.44,-14.14 0,-3.44 1.16,-7.13 5.24,-7.13 3.53,0 5.87,2.49 7.67,5.24 0.45,-2.89 2.39,-5.24 5.48,-5.24 3.89,0 6.29,3.04 8.07,6.79 1.2,2.43 3.09,9.2 3.09,12.29 z"
           inkscape:connector-curvature="0"
           style="fill:#000000;stroke-width:0" /><path
           id="path3185"
           d="m 547.78,411.21 0,0.38 -0.01,0.38 -0.01,0.39 -0.01,0.41 -0.04,0.84 -0.06,0.88 -0.08,0.92 -0.11,0.95 -0.13,0.98 -0.17,1 -0.19,1.02 -0.23,1.04 -0.27,1.05 -0.31,1.06 -0.35,1.06 -0.39,1.07 -0.21,0.53 -0.23,0.53 -0.23,0.53 -0.25,0.53 c -2.99,6.13 -7.27,9.36 -7.77,9.36 -0.3,0 -0.5,-0.19 -0.5,-0.48 0,-0.16 0,-0.25 0.94,-1.16 4.89,-4.92 7.73,-12.84 7.73,-23.27 0,-8.51 -1.84,-17.28 -8.03,-23.56 -0.64,-0.59 -0.64,-0.7 -0.64,-0.84 0,-0.3 0.2,-0.5 0.5,-0.5 0.5,0 4.97,3.39 7.92,9.72 2.53,5.47 3.13,11 3.13,15.18 z"
           inkscape:connector-curvature="0"
           style="fill:#000000;stroke-width:0" /><path
           id="path3187"
           d="m 600.86,415.06 0.14,0 0.14,0 0.15,0.01 0.07,0 0.07,0 0.07,0.01 0.08,0.01 0.07,0.01 0.07,0.01 0.06,0.01 0.07,0.02 0.07,0.02 0.06,0.02 0.06,0.03 0.06,0.02 0.05,0.03 0.06,0.04 0.05,0.04 0.04,0.04 0.05,0.04 0.04,0.05 0.02,0.03 0.01,0.03 0.02,0.03 0.01,0.03 0.02,0.03 0.01,0.03 0.01,0.03 0.01,0.04 0.01,0.03 0.01,0.04 0.01,0.04 0.01,0.04 0,0.04 0,0.04 0.01,0.05 0,0.04 c 0,1 -0.96,1 -1.64,1 h -29.85 c -0.7,0 -1.64,0 -1.64,-1 0,-0.98 0.94,-0.98 1.69,-0.98 z"
           inkscape:connector-curvature="0"
           style="fill:#000000;stroke-width:0" /><path
           id="path3189"
           d="m 600.91,405.39 0.06,0 0.07,0 0.13,0 0.14,0 0.07,0.01 0.07,0 0.07,0.01 0.07,0.01 0.07,0.01 0.07,0.01 0.06,0.01 0.07,0.02 0.06,0.02 0.06,0.02 0.06,0.03 0.06,0.02 0.06,0.04 0.05,0.03 0.05,0.04 0.04,0.04 0.05,0.05 0.02,0.02 0.02,0.03 0.02,0.03 0.01,0.02 0.02,0.03 0.01,0.03 0.02,0.03 0.01,0.04 0.01,0.03 0.01,0.04 0.01,0.03 0.01,0.04 0.01,0.04 0.01,0.04 0,0.04 0,0.05 0.01,0.04 0,0.05 c 0,1 -0.96,1 -1.69,1 h -29.75 c -0.75,0 -1.69,0 -1.69,-1 0,-1 0.94,-1 1.64,-1 z"
           inkscape:connector-curvature="0"
           style="fill:#000000;stroke-width:0" /><path
           id="path3191"
           d="m 620.94,390.14 -0.01,-0.03 0,-0.03 -0.01,-0.02 0,-0.03 -0.01,-0.02 0,-0.03 -0.01,-0.02 -0.01,-0.02 0,-0.03 0,-0.02 -0.01,-0.02 0,-0.02 -0.01,-0.02 0,-0.02 -0.01,-0.03 -0.01,-0.04 0,-0.03 -0.01,-0.03 0,-0.03 -0.01,-0.02 0,-0.03 -0.01,-0.02 0,-0.02 0,-0.02 -0.01,-0.02 0,-0.02 0,-0.02 0,-0.01 0,-0.02 -0.01,-0.01 0,-0.01 0,-0.02 0,-0.01 0,-0.02 0,-0.02 0,-0.02 c 0,-0.73 0.55,-1.34 1.39,-1.34 1.05,0 1.64,0.9 1.75,1.04 0.24,0.46 1.84,7.13 3.19,12.52 0.98,-2 2.58,-3.35 4.92,-3.35 l -0.05,1.1 c -3.48,0 -4.28,3.98 -4.28,4.44 0,0.2 0.25,1.18 0.39,1.84 1.41,5.58 1.91,7.37 3,9.36 2.14,3.64 4.63,4.73 6.17,4.73 1.85,0 3.44,-1.43 3.44,-4.87 0,-2.75 -1.44,-8.33 -2.78,-10.77 -1.66,-3.14 -4.04,-4.73 -5.94,-4.73 h 0 l 0.05,-1.1 c 5.83,0 12.27,7.04 12.27,14.46 0,5.28 -3.3,8.11 -6.94,8.11 -4.83,0 -10.06,-4.99 -11.55,-11.07 z"
           inkscape:connector-curvature="0"
           style="fill:#000000;stroke-width:0" /><path
           id="path3193"
           d="m 663.1,402.31 0,0.71 -0.02,0.68 -0.03,0.66 -0.04,0.64 -0.06,0.62 -0.07,0.59 -0.09,0.58 -0.11,0.56 -0.13,0.55 -0.15,0.52 -0.17,0.52 -0.19,0.5 -0.21,0.49 -0.24,0.48 -0.26,0.47 -0.14,0.23 -0.15,0.23 c -1.07,1.61 -3.23,3 -6.03,3 -8.08,0 -8.08,-9.52 -8.08,-12.03 0,-2.5 0,-11.81 8.08,-11.81 v 0.98 c -1.59,0 -3.72,0.94 -4.42,3.8 -0.49,2.04 -0.49,4.9 -0.49,7.48 0,2.55 0,5.2 0.52,7.11 0.73,2.75 2.97,3.49 4.39,3.49 1.89,0 3.71,-1.15 4.33,-3.18 0.56,-1.87 0.59,-4.39 0.59,-7.42 0,-2.58 0,-5.15 -0.45,-7.34 -0.7,-3.17 -3.06,-3.94 -4.47,-3.94 h 0 v -0.98 c 8.09,0 8.09,9.31 8.09,11.81 z"
           inkscape:connector-curvature="0"
           style="fill:#000000;stroke-width:0" /><polygon
           id="polygon3195"
           points="698.28,455.96 686.98,455.96 686.98,366.32 698.28,366.32 698.28,368.66 689.31,368.66 689.31,453.62 698.28,453.62 "
           style="fill:#000000;stroke-width:0" /><path
           id="path3197"
           d="m 713.88,430.65 0,0.06 0,0.05 0,0.05 0,0.05 0,0.05 0,0.05 0,0.04 0,0.05 0,0.04 -0.01,0.04 0,0.04 0,0.04 0,0.04 0,0.04 -0.01,0.03 0,0.04 -0.01,0.06 -0.01,0.06 -0.01,0.05 -0.01,0.05 -0.02,0.05 -0.02,0.04 -0.02,0.04 -0.02,0.04 -0.03,0.03 -0.03,0.03 -0.04,0.02 -0.04,0.02 -0.04,0.02 -0.03,0.01 -0.02,0.01 -0.03,0 -0.02,0.01 -0.03,0.01 -0.03,0 -0.03,0.01 -0.04,0 -0.03,0.01 -0.03,0 -0.04,0 -0.04,0.01 -0.04,0 -0.04,0 -0.04,0 -0.04,0.01 -0.04,0 -0.05,0 -0.05,0 -0.05,0 -0.05,0 -0.05,0 c -3.09,-3.19 -7.47,-3.19 -9.06,-3.19 v -1.55 c 1,0 3.93,0 6.51,1.3 V 402.7 c 0,-1.8 -0.14,-2.39 -4.62,-2.39 h -1.6 v -1.55 c 1.75,0.16 6.08,0.16 8.06,0.16 2,0 6.33,0 8.08,-0.16 v 1.55 h -1.59 c -4.49,0 -4.64,0.55 -4.64,2.39 z"
           inkscape:connector-curvature="0"
           style="fill:#000000;stroke-width:0" /><path
           id="path3199"
           d="m 767.95,410.21 0.15,0.01 0.16,0 0.16,0 0.08,0.01 0.07,0 0.08,0.01 0.07,0.01 0.08,0.01 0.07,0.01 0.07,0.01 0.07,0.02 0.06,0.02 0.07,0.02 0.06,0.02 0.06,0.03 0.05,0.03 0.05,0.04 0.05,0.04 0.05,0.04 0.04,0.05 0.04,0.05 0.02,0.02 0.02,0.03 0.01,0.03 0.02,0.03 0.01,0.03 0.01,0.04 0.01,0.03 0.01,0.03 0.01,0.04 0.01,0.04 0.01,0.04 0,0.04 0.01,0.04 0,0.04 0,0.05 0.01,0.04 c 0,1 -0.91,1 -1.75,1 h -26.96 c -0.84,0 -1.73,0 -1.73,-1 0,-1 0.89,-1 1.73,-1 z"
           inkscape:connector-curvature="0"
           style="fill:#000000;stroke-width:0" /><path
           id="path3201"
           d="m 806.01,409.47 -17.69,-21.86 c -0.39,-0.5 -0.44,-0.61 -0.44,-0.8 0,-0.56 0.44,-0.56 1.35,-0.56 h 41.29 l 4.28,12.41 h -1.23 c -1.25,-3.74 -4.59,-6.77 -8.83,-8.22 -0.79,-0.25 -4.23,-1.44 -11.54,-1.44 h -21.19 l 17.29,21.38 c 0.35,0.43 0.46,0.59 0.46,0.79 0,0.19 -0.06,0.25 -0.36,0.69 l -16.19,22.22 h 19.74 c 5.67,0 17.12,-0.35 20.62,-9.66 h 1.23 l -4.28,11.66 h -41.29 c -1.35,0 -1.39,-0.05 -1.39,-1.6 z"
           inkscape:connector-curvature="0"
           style="fill:#000000;stroke-width:0" /><path
           id="path3203"
           d="m 873.18,444.69 0.03,0.12 0.03,0.11 0.02,0.11 0.03,0.1 0.03,0.09 0.03,0.09 0.03,0.09 0.03,0.08 0.04,0.08 0.03,0.07 0.05,0.06 0.04,0.07 0.05,0.05 0.06,0.06 0.06,0.05 0.07,0.04 0.07,0.04 0.08,0.04 0.09,0.04 0.1,0.03 0.1,0.03 0.06,0.01 0.06,0.01 0.06,0.01 0.06,0.01 0.07,0.01 0.07,0.01 0.07,0.01 0.07,0.01 0.08,0 0.08,0.01 0.08,0.01 0.09,0 0.09,0.01 0.09,0 0.09,0 0.1,0.01 0.1,0 0.11,0 0.11,0 0.11,0.01 0.11,0 0.12,0 c 0.74,0 1.19,0 1.19,0.73 0,0.52 -0.42,0.52 -1.05,0.52 h -4.73 c -1.02,0 -1.05,-0.04 -1.5,-0.69 l -13.45,-19.88 -3.44,19.63 c -0.19,0.9 -0.19,0.94 -1.22,0.94 h -4.98 c -0.71,0 -1.16,0 -1.16,-0.77 0,-0.48 0.42,-0.48 1.19,-0.48 0.56,0 0.68,0 1.32,-0.08 0.69,-0.07 0.77,-0.14 0.77,-0.49 0,-0.03 0,-0.23 -0.14,-0.76 l -4.39,-17.49 c -0.31,-1.18 -0.84,-2.37 -3.63,-2.48 -0.28,0 -0.73,-0.03 -0.73,-0.77 0,-0.03 0.03,-0.48 0.52,-0.48 1.04,0 2.51,0.14 3.62,0.14 0.84,0 2.86,-0.14 3.7,-0.14 0.18,0 0.69,0 0.69,0.76 0,0.46 -0.45,0.49 -0.76,0.49 -2.22,0.08 -2.22,0.98 -2.22,1.47 0,0.14 0,0.31 0.14,0.87 l 4.62,18.53 h 0.03 l 3.74,-21.18 c 0.11,-0.63 0.17,-0.94 0.7,-0.94 0.49,0 0.77,0.39 1,0.76 l 14.64,21.71 0.03,-0.03 -4.9,-19.72 c -0.28,-1.19 -0.36,-1.47 -3.08,-1.47 -0.63,0 -1.05,0 -1.05,-0.77 0,-0.03 0,-0.48 0.56,-0.48 0.68,0 1.47,0.11 2.16,0.11 0.7,0 1.5,0.03 2.2,0.03 0.97,0 3.46,-0.14 4.43,-0.14 0.21,0 0.73,0 0.73,0.76 0,0.49 -0.42,0.49 -1.11,0.49 -0.05,0 -0.7,0 -1.33,0.08 -0.79,0.06 -0.79,0.17 -0.79,0.51 0,0.22 0.09,0.56 0.14,0.77 z"
           inkscape:connector-curvature="0"
           style="fill:#000000;stroke-width:0" /><path
           id="path3205"
           d="m 848.9,405.54 0,0.05 -0.01,0.06 0,0.05 -0.01,0.06 -0.01,0.05 -0.02,0.06 -0.01,0.05 -0.02,0.06 -0.03,0.06 -0.02,0.05 -0.03,0.06 -0.03,0.05 -0.03,0.06 -0.04,0.05 -0.03,0.05 -0.05,0.05 -0.04,0.05 -0.05,0.05 -0.05,0.04 -0.05,0.05 -0.06,0.04 -0.06,0.03 -0.06,0.04 -0.06,0.03 -0.07,0.03 -0.07,0.03 -0.08,0.02 -0.07,0.02 -0.09,0.01 -0.08,0.01 -0.09,0.01 -0.09,0 c -0.94,0 -1.95,-0.91 -1.95,-1.92 0,-0.59 0.45,-1.33 1.41,-1.33 1,0 1.95,0.99 1.95,1.92 z"
           inkscape:connector-curvature="0"
           style="fill:#000000;stroke-width:0" /><path
           id="path3207"
           d="m 841.79,387.84 -0.05,-0.17 -0.06,-0.17 -0.03,-0.08 -0.02,-0.09 -0.03,-0.08 -0.02,-0.09 -0.02,-0.09 -0.02,-0.09 -0.02,-0.1 -0.01,-0.09 -0.02,-0.1 0,-0.05 -0.01,-0.05 0,-0.06 0,-0.05 0,-0.05 0,-0.06 c 0,-1.64 1.39,-2.95 3.29,-2.95 3.49,0 5.03,4.79 5.03,5.33 0,0.45 -0.45,0.45 -0.56,0.45 -0.48,0 -0.53,-0.2 -0.67,-0.59 -0.8,-2.79 -2.33,-4.22 -3.69,-4.22 -0.7,0 -0.87,0.45 -0.87,1.22 0,0.79 0.25,1.46 0.56,2.23 0.34,0.94 0.73,1.87 1.11,2.78 0.31,0.84 1.58,4.02 1.72,4.44 0.09,0.34 0.2,0.76 0.2,1.11 0,1.64 -1.39,2.95 -3.31,2.95 -3.45,0 -5.05,-4.73 -5.05,-5.33 0,-0.45 0.49,-0.45 0.6,-0.45 0.48,0 0.51,0.17 0.62,0.56 0.91,3 2.44,4.25 3.72,4.25 0.56,0 0.87,-0.28 0.87,-1.22 0,-0.79 -0.2,-1.32 -1.07,-3.48 z"
           inkscape:connector-curvature="0"
           style="fill:#000000;stroke-width:0" /><path
           id="path3209"
           d="m 878.41,395.46 0.05,0.01 0.05,0 0.05,0 0.05,0 0.11,0 0.05,0 0.06,0.01 0.05,0 0.06,0.01 0.05,0.01 0.06,0.01 0.05,0.01 0.05,0.02 0.06,0.02 0.05,0.01 0.04,0.03 0.05,0.02 0.05,0.03 0.04,0.03 0.04,0.03 0.04,0.04 0.03,0.04 0.02,0.02 0.02,0.02 0.01,0.03 0.02,0.02 0.01,0.03 0.01,0.02 0.01,0.03 0.01,0.03 0.01,0.03 0.01,0.03 0.01,0.03 0.01,0.04 0,0.03 0.01,0.04 0,0.03 0.01,0.04 0,0.04 0,0.04 c 0,0.84 -0.83,0.84 -1.28,0.84 h -23.06 c -0.46,0 -1.3,0 -1.3,-0.84 0,-0.88 0.8,-0.88 1.33,-0.88 z"
           inkscape:connector-curvature="0"
           style="fill:#000000;stroke-width:0" /><path
           id="path3211"
           d="m 878.44,387.81 0.04,0 0.05,0 0.04,0 0.05,0 0.05,0 0.05,0 0.06,0.01 0.05,0 0.05,0.01 0.06,0 0.05,0.01 0.05,0.01 0.06,0.01 0.05,0.02 0.05,0.01 0.05,0.02 0.05,0.02 0.04,0.03 0.05,0.02 0.04,0.03 0.04,0.03 0.04,0.04 0.04,0.04 0.02,0.02 0.01,0.02 0.02,0.02 0.01,0.02 0.02,0.03 0.01,0.02 0.01,0.03 0.01,0.03 0.01,0.02 0.01,0.03 0.01,0.03 0.01,0.04 0,0.03 0.01,0.03 0,0.04 0.01,0.03 0,0.04 0,0.04 c 0,0.87 -0.8,0.87 -1.31,0.87 h -23 c -0.53,0 -1.33,0 -1.33,-0.87 0,-0.83 0.84,-0.83 1.3,-0.83 z"
           inkscape:connector-curvature="0"
           style="fill:#000000;stroke-width:0" /><path
           id="path3213"
           d="m 893.91,405.92 0,0.04 0,0.04 0,0.05 0,0.04 0,0.03 0,0.04 0,0.04 0,0.03 -0.01,0.04 0,0.03 0,0.03 0,0.03 0,0.03 -0.01,0.03 0,0.03 -0.01,0.02 0,0.03 0,0.02 -0.01,0.03 0,0.02 -0.02,0.04 -0.01,0.04 -0.02,0.03 -0.02,0.03 -0.02,0.03 -0.02,0.03 -0.03,0.02 -0.03,0.02 -0.04,0.02 -0.03,0.01 -0.04,0.01 -0.05,0.02 -0.02,0 -0.03,0 -0.02,0.01 -0.03,0 -0.03,0.01 -0.02,0 -0.03,0 -0.03,0 -0.04,0 -0.03,0.01 -0.03,0 -0.04,0 -0.04,0 -0.03,0 -0.04,0 -0.04,0 -0.04,0 -0.05,0 -0.04,0 -0.05,0 c -2.23,-2.2 -5.39,-2.23 -6.83,-2.23 v -1.25 c 0.85,0 3.15,0 5.05,0.97 v -17.77 c 0,-1.16 0,-1.61 -3.48,-1.61 h -1.32 v -1.25 c 0.63,0.03 4.91,0.14 6.21,0.14 1.08,0 5.47,-0.11 6.23,-0.14 v 1.25 h -1.32 c -3.49,0 -3.49,0.45 -3.49,1.61 z"
           inkscape:connector-curvature="0"
           style="fill:#000000;stroke-width:0" /><path
           id="path3215"
           d="m 917.23,401.7 -0.02,-0.07 -0.01,-0.08 -0.02,-0.07 -0.01,-0.08 -0.04,-0.16 -0.04,-0.16 -0.03,-0.16 -0.04,-0.16 -0.04,-0.16 -0.04,-0.16 -0.01,-0.07 -0.02,-0.08 -0.02,-0.07 -0.01,-0.07 -0.02,-0.07 -0.01,-0.06 -0.01,-0.07 -0.01,-0.06 -0.01,-0.05 -0.01,-0.05 -0.01,-0.05 -0.01,-0.05 -0.01,-0.04 0,-0.03 0,-0.04 0,-0.02 c 0,-0.89 0.7,-1.35 1.44,-1.35 0.6,0 1.5,0.4 1.84,1.4 0.06,0.1 0.66,2.43 0.95,3.68 l 1.09,4.49 c 0.3,1.09 0.6,2.18 0.85,3.34 0.2,0.84 0.61,2.28 0.65,2.49 0.75,1.54 3.4,6.07 8.12,6.07 2.25,0 2.7,-1.84 2.7,-3.48 0,-1.25 -0.36,-2.64 -0.75,-4.14 l -1.39,-5.78 -1,-3.78 c -0.21,-1 -0.66,-2.69 -0.66,-2.94 0,-0.89 0.7,-1.35 1.45,-1.35 1.55,0 1.85,1.25 2.24,2.85 0.7,2.78 2.54,10.06 3,12 0.14,0.65 2.78,6.62 8.22,6.62 2.14,0 2.69,-1.68 2.69,-3.48 0,-2.84 -2.1,-8.52 -3.1,-11.16 -0.45,-1.2 -0.64,-1.75 -0.64,-2.75 0,-2.33 1.74,-4.08 4.08,-4.08 4.69,0 6.53,7.27 6.53,7.68 0,0.5 -0.45,0.5 -0.59,0.5 -0.5,0 -0.5,-0.16 -0.75,-0.91 -0.75,-2.64 -2.35,-6.17 -5.08,-6.17 -0.86,0 -1.2,0.5 -1.2,1.64 0,1.25 0.45,2.45 0.88,3.55 0.96,2.57 3.05,8.11 3.05,10.95 0,3.23 -2,5.33 -5.73,5.33 -3.74,0 -6.27,-2.19 -8.11,-4.83 -0.06,0.66 -0.21,2.34 -1.61,3.53 -1.23,1.05 -2.83,1.3 -4.08,1.3 -4.48,0 -6.92,-3.19 -7.77,-4.33 -0.25,2.84 -2.34,4.33 -4.59,4.33 -2.28,0 -3.23,-1.94 -3.69,-2.83 -0.89,-1.75 -1.54,-4.69 -1.54,-4.84 0,-0.5 0.5,-0.5 0.61,-0.5 0.5,0 0.54,0.06 0.84,1.15 0.84,3.53 1.84,5.92 3.64,5.92 0.8,0 1.55,-0.39 1.55,-2.28 0,-1.04 -0.16,-1.61 -0.8,-4.19 z"
           inkscape:connector-curvature="0"
           style="fill:#000000;stroke-width:0" /><path
           id="path3217"
           d="m 967.82,412.98 -0.01,0.05 0,0.06 -0.01,0.05 0,0.05 -0.02,0.06 -0.01,0.06 -0.02,0.05 -0.02,0.06 -0.02,0.05 -0.02,0.06 -0.03,0.06 -0.03,0.05 -0.03,0.05 -0.04,0.06 -0.04,0.05 -0.04,0.05 -0.04,0.05 -0.05,0.05 -0.05,0.04 -0.05,0.04 -0.06,0.04 -0.06,0.04 -0.06,0.04 -0.06,0.03 -0.07,0.03 -0.07,0.02 -0.08,0.03 -0.08,0.01 -0.08,0.02 -0.08,0.01 -0.09,0.01 -0.09,0 c -0.94,0 -1.95,-0.91 -1.95,-1.92 0,-0.6 0.45,-1.33 1.4,-1.33 1,0 1.96,0.98 1.96,1.92 z"
           inkscape:connector-curvature="0"
           style="fill:#000000;stroke-width:0" /><path
           id="path3219"
           d="m 960.71,395.28 -0.06,-0.17 -0.05,-0.17 -0.03,-0.08 -0.02,-0.09 -0.03,-0.09 -0.02,-0.08 -0.02,-0.09 -0.02,-0.1 -0.02,-0.09 -0.02,-0.1 -0.01,-0.09 0,-0.05 -0.01,-0.06 0,-0.05 0,-0.05 0,-0.06 0,-0.05 c 0,-1.64 1.38,-2.95 3.29,-2.95 3.49,0 5.03,4.79 5.03,5.32 0,0.46 -0.45,0.46 -0.56,0.46 -0.48,0 -0.53,-0.21 -0.67,-0.6 -0.8,-2.78 -2.33,-4.22 -3.69,-4.22 -0.7,0 -0.87,0.46 -0.87,1.22 0,0.8 0.25,1.47 0.56,2.24 0.34,0.93 0.73,1.87 1.11,2.78 0.31,0.84 1.58,4.01 1.72,4.44 0.09,0.34 0.2,0.76 0.2,1.11 0,1.64 -1.39,2.95 -3.31,2.95 -3.46,0 -5.05,-4.74 -5.05,-5.33 0,-0.45 0.49,-0.45 0.59,-0.45 0.49,0 0.52,0.17 0.63,0.56 0.9,3 2.44,4.25 3.72,4.25 0.56,0 0.87,-0.28 0.87,-1.22 0,-0.8 -0.2,-1.33 -1.07,-3.48 z"
           inkscape:connector-curvature="0"
           style="fill:#000000;stroke-width:0" /><path
           id="path3221"
           d="m 1007.1,366.87 0,-0.01 0,0 0.1,0 0,-0.01 0,0 0,-0.01 0,0 0,-0.01 0,-0.01 0,0 0,-0.02 0,-0.02 0.1,-0.02 0,-0.02 0,-0.02 0,-0.02 0.1,-0.03 0,-0.02 0,-0.02 0,-0.05 0.1,-0.03 0,-0.02 0,-0.03 0,-0.02 0.1,-0.02 0,-0.02 0,-0.02 0,-0.02 0,-0.02 0.1,-0.01 0,-0.01 0,-0.01 0,0 0,-0.01 0,0 0,-0.01 0,0 0,0 0,-0.01 0,0 0,0 0,0 h 1.1 c 0.2,0 0.6,0.05 0.6,0.5 0,0.2 -0.1,0.3 -0.2,0.45 -1.8,1.8 -4.5,4.53 -7.6,10.02 -5.37,9.56 -7.37,21.87 -7.37,33.83 0,22.12 6.27,35.12 14.97,43.93 0.2,0.16 0.2,0.3 0.2,0.41 0,0.5 -0.4,0.5 -1,0.5 -0.6,0 -0.7,0 -1.2,-0.41 -4.7,-4.07 -10.03,-11.01 -13.47,-21.51 -2.14,-6.58 -3.28,-14.61 -3.28,-22.88 0,-11.81 2.14,-25.15 9.95,-36.71 1.4,-1.94 3.2,-3.99 3.2,-4.04 0.5,-0.59 1.2,-1.4 1.6,-1.75 z"
           inkscape:connector-curvature="0"
           style="fill:#000000;stroke-width:0" /><path
           id="path3223"
           d="m 1025.9,430.65 0,0.06 0,0.05 0,0.05 0,0.05 0,0.05 0,0.05 0,0.04 0,0.05 0,0.04 0,0.04 0,0.04 0,0.04 0,0.04 0,0.04 0,0.03 0,0.04 0,0.06 -0.1,0.06 0,0.05 0,0.05 0,0.05 0,0.04 0,0.04 -0.1,0.04 0,0.03 0,0.03 -0.1,0.02 0,0.02 0,0.02 -0.1,0.01 0,0.01 0,0 0,0.01 -0.1,0.01 0,0 0,0.01 -0.1,0 0,0.01 0,0 -0.1,0 0,0.01 0,0 -0.1,0 0,0 -0.1,0.01 0,0 -0.1,0 0,0 -0.1,0 0,0 -0.1,0 c -3.1,-3.19 -7.4,-3.19 -9,-3.19 v -1.55 c 1,0 3.9,0 6.5,1.3 V 402.7 c 0,-1.8 -0.2,-2.39 -4.6,-2.39 h -1.6 v -1.55 c 1.7,0.16 6,0.16 8,0.16 2,0 6.4,0 8.1,-0.16 v 1.55 h -1.6 c -4.5,0 -4.6,0.55 -4.6,2.39 z"
           inkscape:connector-curvature="0"
           style="fill:#000000;stroke-width:0" /><path
           id="path3225"
           d="m 1080.1,410.21 0.1,0.01 0.2,0 0.1,0 0.1,0.01 0.1,0 0.1,0.01 0,0.01 0.1,0.01 0.1,0.01 0.1,0.01 0,0.02 0.1,0.02 0.1,0.02 0,0.02 0.1,0.03 0,0.03 0.1,0.04 0,0.04 0.1,0.04 0,0.05 0.1,0.05 0,0.02 0,0.03 0,0.03 0,0.03 0,0.03 0.1,0.04 0,0.03 0,0.03 0,0.04 0,0.04 0,0.04 0,0.04 0,0.04 0,0.04 0,0.05 0,0.04 c 0,1 -0.9,1 -1.7,1 h -27 c -0.8,0 -1.7,0 -1.7,-1 0,-1 0.9,-1 1.7,-1 z"
           inkscape:connector-curvature="0"
           style="fill:#000000;stroke-width:0" /><path
           id="path3227"
           d="m 1192.2,440.48 0,0.04 0,0.04 0,0.05 0,0.04 0,0.03 0,0.04 0,0.04 0,0.03 0,0.04 0,0.03 0,0.03 0,0.03 0,0.03 0,0.03 0,0.03 0,0.02 0,0.03 0,0.02 0,0.03 0,0.02 0,0.04 0,0.04 -0.1,0.03 0,0.03 0,0.03 0,0.03 -0.1,0.02 0,0.02 0,0.02 -0.1,0.01 0,0.01 0,0.01 -0.1,0.01 0,0 0,0.01 0,0 -0.1,0 0,0.01 0,0 -0.1,0 0,0 0,0.01 -0.1,0 0,0 0,0 -0.1,0 0,0 0,0 -0.1,0 0,0 -0.1,0 0,0 c -2.3,-2.2 -5.4,-2.23 -6.8,-2.23 v -1.25 c 0.8,0 3.1,0 5,0.97 v -17.77 c 0,-1.16 0,-1.61 -3.5,-1.61 h -1.3 v -1.25 c 0.6,0.03 4.9,0.14 6.2,0.14 1.1,0 5.5,-0.11 6.2,-0.14 v 1.25 h -1.3 c -3.5,0 -3.5,0.45 -3.5,1.61 z"
           inkscape:connector-curvature="0"
           style="fill:#000000;stroke-width:0" /><polyline
           id="polyline3229"
           points="1103,410 1277.8,410 1277.8,412.04 1103,412.04 "
           style="fill:#000000;fill-rule:nonzero;stroke-width:0" /><path
           id="path3231"
           d="m 1114.7,403.64 0,0.04 0,0.04 0,0.05 0,0.04 0,0.03 0,0.04 0,0.04 0,0.03 0,0.04 0,0.03 0,0.03 0,0.03 0,0.03 0,0.03 0,0.03 0,0.02 0,0.03 0,0.02 0,0.03 0,0.02 0,0.04 -0.1,0.04 0,0.03 0,0.03 0,0.03 0,0.03 -0.1,0.02 0,0.02 0,0.02 -0.1,0.01 0,0.01 -0.1,0.01 0,0.01 0,0 0,0.01 -0.1,0 0,0 0,0.01 0,0 -0.1,0 0,0 0,0.01 -0.1,0 0,0 0,0 -0.1,0 0,0 -0.1,0 0,0 0,0 -0.1,0 0,0 c -2.3,-2.2 -5.4,-2.23 -6.9,-2.23 v -1.25 c 0.9,0 3.2,0 5.1,0.97 v -17.77 c 0,-1.16 0,-1.61 -3.5,-1.61 h -1.3 v -1.25 c 0.6,0.03 4.9,0.14 6.2,0.14 1.1,0 5.5,-0.11 6.2,-0.14 v 1.25 h -1.3 c -3.5,0 -3.5,0.45 -3.5,1.61 z"
           inkscape:connector-curvature="0"
           style="fill:#000000;stroke-width:0" /><path
           id="path3233"
           d="m 1139,389.36 h 10.6 c 0.5,0 1.3,0 1.3,0.84 0,0.86 -0.8,0.86 -1.3,0.86 H 1139 v 10.7 c 0,0.45 0,1.28 -0.9,1.28 -0.8,0 -0.8,-0.79 -0.8,-1.28 v -10.7 h -10.7 c -0.5,0 -1.3,0 -1.3,-0.83 0,-0.87 0.8,-0.87 1.3,-0.87 h 10.7 v -10.71 c 0,-0.45 0,-1.28 0.8,-1.28 0.9,0 0.9,0.8 0.9,1.28 z"
           inkscape:connector-curvature="0"
           style="fill:#000000;stroke-width:0" /><path
           id="path3235"
           d="m 1165.8,407.62 -0.6,-0.44 -0.6,-0.47 -0.5,-0.47 -0.6,-0.49 -0.5,-0.5 -0.4,-0.51 -0.5,-0.53 -0.4,-0.53 -0.4,-0.54 -0.4,-0.55 -0.3,-0.56 -0.4,-0.56 -0.3,-0.57 -0.3,-0.57 -0.2,-0.58 -0.3,-0.58 -0.2,-0.58 -0.2,-0.58 -0.2,-0.59 -0.2,-0.58 -0.1,-0.58 -0.2,-0.58 -0.1,-0.57 -0.1,-0.57 -0.1,-0.57 -0.1,-0.56 0,-0.55 -0.1,-0.54 0,-0.54 0,-0.53 -0.1,-0.51 0,-0.51 c 0,-4.92 1.5,-12.55 8.4,-17.42 0.3,0 0.7,0 0.7,0.4 0,0.22 -0.1,0.29 -0.3,0.54 -4.7,4.18 -6.4,10.11 -6.4,16.45 0,9.41 3.6,14 6.5,16.58 0.1,0.14 0.2,0.25 0.2,0.42 0,0.42 -0.4,0.42 -0.7,0.42 z"
           inkscape:connector-curvature="0"
           style="fill:#000000;stroke-width:0" /><path
           id="path3237"
           d="m 1180.3,403.26 0,0.05 0,0.06 0,0.05 0,0.06 0,0.05 0,0.06 0,0.05 -0.1,0.06 0,0.06 0,0.05 0,0.06 -0.1,0.05 0,0.06 0,0.05 -0.1,0.05 0,0.05 0,0.05 -0.1,0.05 0,0.04 -0.1,0.04 -0.1,0.04 0,0.04 -0.1,0.04 0,0.03 -0.1,0.03 -0.1,0.02 -0.1,0.03 0,0.02 -0.1,0.01 -0.1,0.01 -0.1,0.01 -0.1,0 c -0.9,0 -1.9,-0.91 -1.9,-1.92 0,-0.6 0.4,-1.33 1.4,-1.33 1,0 1.9,0.98 1.9,1.92 z"
           inkscape:connector-curvature="0"
           style="fill:#000000;stroke-width:0" /><path
           id="path3239"
           d="m 1173.2,385.56 0,-0.17 -0.1,-0.17 0,-0.08 0,-0.09 -0.1,-0.09 0,-0.08 0,-0.09 0,-0.09 0,-0.1 -0.1,-0.09 0,-0.1 0,-0.05 0,-0.05 0,-0.06 0,-0.05 0,-0.05 0,-0.06 c 0,-1.64 1.4,-2.95 3.3,-2.95 3.5,0 5,4.79 5,5.32 0,0.46 -0.4,0.46 -0.5,0.46 -0.5,0 -0.6,-0.21 -0.7,-0.6 -0.8,-2.78 -2.3,-4.21 -3.7,-4.21 -0.7,0 -0.9,0.45 -0.9,1.21 0,0.8 0.3,1.47 0.6,2.24 0.3,0.94 0.7,1.87 1.1,2.78 0.3,0.84 1.6,4.02 1.7,4.44 0.1,0.34 0.2,0.76 0.2,1.11 0,1.64 -1.4,2.95 -3.3,2.95 -3.4,0 -5,-4.73 -5,-5.33 0,-0.45 0.5,-0.45 0.6,-0.45 0.5,0 0.5,0.17 0.6,0.56 0.9,3 2.4,4.25 3.7,4.25 0.6,0 0.9,-0.28 0.9,-1.22 0,-0.79 -0.2,-1.33 -1.1,-3.48 z"
           inkscape:connector-curvature="0"
           style="fill:#000000;stroke-width:0" /><path
           id="path3241"
           d="m 1206.9,394.37 0,0.1 0,0.1 0,0.1 -0.1,0.11 0,0.1 0,0.11 0,0.1 0,0.11 -0.1,0.1 0,0.11 0,0.1 -0.1,0.1 0,0.1 0,0.1 -0.1,0.1 0,0.09 -0.1,0.09 -0.1,0.08 0,0.09 -0.1,0.07 -0.1,0.08 0,0.07 -0.1,0.06 -0.1,0.06 -0.1,0.05 -0.1,0.05 -0.1,0.04 -0.1,0.04 -0.1,0.02 -0.1,0.01 -0.1,0.01 0,0.01 -0.1,0.01 0,0 -0.1,0 c -0.8,0 -1.8,-1.03 -1.8,-1.91 0,-1.15 1.9,-1.39 1.9,-3.76 0,-2.24 -2.2,-7.25 -6.1,-7.25 -1.7,0 -3.1,1.15 -3.6,2.69 0.4,0.76 1.3,3.17 1.3,4.07 0,0.52 -0.3,1.05 -0.9,1.05 -1.8,0 -1.9,-3.77 -1.9,-4.98 -1,-1.27 -2.7,-2.83 -5,-2.83 -1.9,0 -3.3,1.7 -3.3,4.04 0,4.04 3.6,7.43 3.6,7.94 0,0.42 -0.4,0.81 -0.7,0.81 -0.4,0 -0.6,-0.18 -0.8,-0.5 -0.5,-0.51 -0.9,-1.28 -1.4,-1.98 -1.2,-2.09 -2,-5.05 -2,-7.56 0,-2.78 1.1,-5.53 4.3,-5.53 2.3,0 4.3,1.53 5.6,3.4 0.6,-2.09 2.2,-3.37 4.4,-3.37 6.1,0 8.3,10.31 8.3,13.2 z"
           inkscape:connector-curvature="0"
           style="fill:#000000;stroke-width:0" /><path
           id="path3243"
           d="m 1221.3,394.14 h 6.5 c 0.4,0 1.8,0 1.8,1.39 0,0.97 -0.9,0.97 -1.5,0.97 h -10.9 c -1.1,0 -2.2,-0.07 -4,-1.74 -1,-0.9 -2.3,-2.76 -2.3,-3.03 0,-0.42 0.5,-0.42 0.6,-0.42 0.4,0 0.4,0.06 0.6,0.37 1.8,2.46 3.9,2.46 4.7,2.46 h 3.1 l -3.4,-11.16 c -0.2,-0.56 -0.2,-0.59 -0.2,-0.8 0,-0.95 0.9,-1.12 1.2,-1.12 1.3,0 1.5,1.26 1.6,1.75 z"
           inkscape:connector-curvature="0"
           style="fill:#000000;stroke-width:0" /><path
           id="path3245"
           d="m 1237.6,392.11 0,0.05 0,0.05 0,0.06 0,0.05 -0.1,0.05 0,0.05 0,0.05 0,0.05 0,0.05 0,0.04 -0.1,0.05 0,0.04 0,0.04 -0.1,0.04 0,0.04 0,0.04 -0.1,0.03 0,0.04 0,0.03 -0.1,0.03 0,0.03 -0.1,0.02 0,0.02 -0.1,0.03 0,0.01 -0.1,0.02 0,0.01 -0.1,0.02 0,0.01 -0.1,0 -0.1,0.01 0,0 c -0.7,0 -1.5,-0.67 -1.5,-1.49 0,-0.7 0.5,-1.07 1,-1.07 0.9,0 1.6,0.75 1.6,1.5 z"
           inkscape:connector-curvature="0"
           style="fill:#000000;stroke-width:0" /><path
           id="path3247"
           d="m 1238.8,380.15 -0.1,0.02 0,0.01 0,0.02 0,0.01 0,0.02 0,0.01 0,0.01 0,0.02 0,0.01 0,0.01 0,0.01 0,0.01 0,0.01 0,0.01 0,0.01 0,0.01 0,0.01 0,0.01 0,0.01 -0.1,0 0,0.02 0,0.01 0,0.01 0,0.01 -0.1,0.01 0,0.01 0,0.01 0,0.01 0,0 -0.1,0.01 0,0 0,0.01 0,0 0,0 -0.1,0 0,0 0,0 0,0.01 0,0 0,0 -0.1,0 0,0 0,0 c -0.4,0 -0.4,-0.1 -0.6,-0.58 -0.4,-1.36 -1.5,-2.78 -2.8,-2.78 -0.5,0 -0.7,0.39 -0.7,0.93 0,0.54 0.1,0.8 0.3,1.29 0.2,0.48 0.4,0.98 0.5,1.34 0.2,0.22 1.1,2.53 1.5,3.44 0.2,0.5 0.3,0.81 0.3,1.23 0,1.2 -1.1,2.2 -2.7,2.2 -2.6,0 -4,-3.18 -4,-3.86 0,-0.35 0.4,-0.35 0.5,-0.35 0.4,0 0.4,0.12 0.6,0.5 0.5,1.76 1.7,2.85 2.8,2.85 0.5,0 0.7,-0.26 0.7,-0.93 0,-0.1 0,-0.42 -0.1,-0.91 -0.2,-0.44 -1.3,-3.11 -1.7,-3.95 -0.1,-0.42 -0.1,-0.47 -0.5,-1.31 -0.1,-0.36 -0.3,-0.71 -0.3,-1.13 0,-1.3 1.2,-2.2 2.8,-2.2 2.6,0 4,3.25 4,3.87 z"
           inkscape:connector-curvature="0"
           style="fill:#000000;stroke-width:0" /><path
           id="path3249"
           d="m 1246.8,407.62 0,0 0,0 -0.1,0 0,0 0,0 0,0 -0.1,0 0,-0.01 0,0 0,0 -0.1,-0.01 0,0 0,-0.01 -0.1,0 0,-0.01 0,-0.01 0,-0.01 -0.1,-0.01 0,-0.02 0,-0.01 0,-0.02 0,-0.02 -0.1,-0.02 0,-0.01 0,-0.01 0,-0.01 0,-0.01 0,-0.01 0,-0.02 0,-0.01 0,-0.01 0,-0.02 0,-0.01 0,-0.02 0,-0.01 0,-0.02 0,-0.02 0,-0.01 0,-0.02 0,-0.02 0,-0.02 c 0,-0.17 0.1,-0.28 0.3,-0.53 3,-2.75 6.3,-7.46 6.3,-16.44 0,-7.28 -2.3,-12.8 -6,-16.2 -0.6,-0.6 -0.6,-0.63 -0.6,-0.82 0,-0.17 0.1,-0.4 0.4,-0.4 0.4,0 3.7,2.3 6,6.65 1.6,2.9 2.6,6.66 2.6,10.74 0,4.91 -1.5,12.53 -8.4,17.42 z"
           inkscape:connector-curvature="0"
           style="fill:#000000;stroke-width:0" /><path
           id="path3251"
           d="m 1272.1,403.09 0,-0.01 -0.1,-0.02 0,-0.02 -0.1,-0.02 0,-0.02 -0.1,-0.02 0,-0.03 -0.1,-0.03 0,-0.03 -0.1,-0.03 0,-0.03 0,-0.04 -0.1,-0.04 0,-0.04 -0.1,-0.05 0,-0.04 -0.1,-0.05 0,-0.05 -0.1,-0.05 0,-0.06 0,-0.05 -0.1,-0.06 0,-0.06 0,-0.06 0,-0.07 -0.1,-0.07 0,-0.06 0,-0.07 0,-0.08 0,-0.07 0,-0.08 0,-0.07 c 0,-0.66 0.4,-1.04 1.1,-1.04 0.6,0 1.5,0.49 1.5,1.72 0,1.88 -2.4,2.21 -3.8,2.21 -4.2,0 -7.9,-3.44 -7.9,-6.75 0,-2.18 1.7,-4.55 5.4,-4.55 0.5,0 2.5,0 4.2,0.66 1.6,0.64 2.6,1.79 2.6,2.06 0,0.2 -0.3,0.58 -0.5,0.58 -0.2,0 -0.2,-0.04 -0.6,-0.43 -1.1,-1.28 -3.2,-2.01 -5.7,-2.01 -2.1,0 -3.1,1.17 -3.1,2.89 0,2.53 1.7,6.69 5.6,6.69 0.3,0 1.5,0 2.3,-0.55 z"
           inkscape:connector-curvature="0"
           style="fill:#000000;stroke-width:0" /><path
           id="path3253"
           d="m 1269.1,385.75 0,0.05 0,0.06 0,0.05 0,0.05 0,0.05 0,0.05 0,0.05 0,0.05 -0.1,0.05 0,0.05 0,0.04 0,0.04 -0.1,0.04 0,0.05 0,0.03 -0.1,0.04 0,0.04 0,0.03 -0.1,0.03 0,0.03 -0.1,0.03 0,0.02 -0.1,0.03 0,0.02 -0.1,0.02 0,0.01 -0.1,0.02 0,0.01 -0.1,0.01 0,0 -0.1,0.01 0,0 c -0.7,0 -1.6,-0.67 -1.6,-1.49 0,-0.7 0.6,-1.07 1.1,-1.07 0.8,0 1.5,0.75 1.5,1.5 z"
           inkscape:connector-curvature="0"
           style="fill:#000000;stroke-width:0" /><path
           id="path3255"
           d="m 1270.3,373.79 0,0.02 0,0.01 0,0.02 0,0.01 0,0.02 0,0.01 0,0.01 0,0.02 0,0.01 0,0.01 0,0.01 0,0.01 0,0.01 0,0.01 0,0.01 -0.1,0.01 0,0.01 0,0.01 0,0.01 0,0.01 0,0.01 0,0.01 0,0.01 -0.1,0.02 0,0.01 0,0 0,0.01 -0.1,0.01 0,0 0,0.01 0,0 0,0.01 -0.1,0 0,0 0,0 0,0 0,0.01 -0.1,0 0,0 0,0 0,0 0,0 0,0 c -0.4,0 -0.5,-0.1 -0.6,-0.58 -0.4,-1.36 -1.5,-2.78 -2.8,-2.78 -0.6,0 -0.7,0.39 -0.7,0.93 0,0.54 0.1,0.8 0.3,1.29 0.2,0.48 0.4,0.98 0.5,1.34 0.1,0.22 1.1,2.53 1.4,3.44 0.2,0.5 0.4,0.81 0.4,1.23 0,1.2 -1.2,2.2 -2.7,2.2 -2.7,0 -4,-3.18 -4,-3.85 0,-0.36 0.3,-0.36 0.5,-0.36 0.4,0 0.4,0.12 0.5,0.5 0.6,1.76 1.8,2.86 2.8,2.86 0.5,0 0.8,-0.27 0.8,-0.94 0,-0.1 0,-0.42 -0.1,-0.91 -0.2,-0.44 -1.3,-3.11 -1.7,-3.95 -0.2,-0.42 -0.2,-0.47 -0.5,-1.31 -0.2,-0.36 -0.3,-0.71 -0.3,-1.13 0,-1.3 1.2,-2.2 2.7,-2.2 2.6,0 4,3.25 4,3.87 z"
           inkscape:connector-curvature="0"
           style="fill:#000000;stroke-width:0" /><path
           id="path3257"
           d="m 1304.6,411.16 0,2.69 -0.2,2.71 -0.2,2.71 -0.3,2.71 -0.4,2.7 -0.5,2.69 -0.6,2.67 -0.7,2.64 -0.8,2.6 -0.5,1.28 -0.5,1.27 -0.5,1.27 -0.5,1.24 -0.6,1.23 -0.6,1.22 -0.7,1.2 -0.7,1.19 -0.7,1.16 -0.8,1.15 -0.7,1.12 -0.9,1.11 -0.8,1.09 -0.9,1.06 c -0.7,0.79 -2.6,2.73 -3.8,3.78 -0.3,0.31 -0.4,0.31 -1.1,0.31 -0.5,0 -0.9,0 -0.9,-0.5 0,-0.2 0.2,-0.41 0.3,-0.5 1.7,-1.75 4.4,-4.48 7.4,-9.97 5.4,-9.56 7.4,-21.87 7.4,-33.83 0,-21.62 -6,-34.82 -14.9,-43.93 -0.1,-0.11 -0.2,-0.25 -0.2,-0.41 0,-0.5 0.4,-0.5 0.9,-0.5 0.7,0 0.8,0 1.2,0.41 4.8,4.07 10.1,11 13.5,21.51 2.2,6.83 3.3,14.91 3.3,22.92 z"
           inkscape:connector-curvature="0"
           style="fill:#000000;stroke-width:0" /><polygon
           id="polygon3259"
           points="1314.4,453.62 1323.4,453.62 1323.4,368.66 1314.4,368.66 1314.4,366.32 1325.7,366.32 1325.7,455.96 1314.4,455.96 "
           style="fill:#000000;stroke-width:0" /></g>    </g>
  </g>
</svg>
